<svg xmlns="http://www.w3.org/2000/svg" viewBox="0 0 500 500"><g id="freepik--background-complete--inject-2"><polygon points="52.14 379.2 59.35 426.58 101.23 426.58 110.95 379.89 52.14 379.2" style="fill:#f5f5f5"></polygon><path d="M105.09,409.57c0,.13-10.73.24-24,.24s-24-.11-24-.24,10.73-.25,24-.25S105.09,409.43,105.09,409.57Z" style="fill:#e0e0e0"></path><path d="M105.26,407.24c0,.13-10.81.24-24.13.24S57,407.37,57,407.24,67.8,407,81.13,407,105.26,407.1,105.26,407.24Z" style="fill:#e0e0e0"></path><path d="M105.17,404.6c0,.14-10.8.25-24.13.25s-24.13-.11-24.13-.25,10.8-.24,24.13-.24S105.17,404.47,105.17,404.6Z" style="fill:#e0e0e0"></path><path d="M64.16,423.88a37.56,37.56,0,0,1-1.29-6,39.45,39.45,0,0,1-.8-6.05,37.56,37.56,0,0,1,1.29,6A39.16,39.16,0,0,1,64.16,423.88Z" style="fill:#e0e0e0"></path><path d="M67,423.37a45.45,45.45,0,0,1-.52-5.82,48.09,48.09,0,0,1-.28-5.83,27.22,27.22,0,0,1,.77,5.8A28.43,28.43,0,0,1,67,423.37Z" style="fill:#e0e0e0"></path><path d="M72.2,423.37a47.5,47.5,0,0,1-1.41-12,52.11,52.11,0,0,1,.81,6A53,53,0,0,1,72.2,423.37Z" style="fill:#e0e0e0"></path><path d="M75.85,423.62a28.86,28.86,0,0,1-.59-6.06,29.82,29.82,0,0,1,.19-6.09,53.58,53.58,0,0,1,.31,6.07A56.71,56.71,0,0,1,75.85,423.62Z" style="fill:#e0e0e0"></path><path d="M82.3,423.37a33.7,33.7,0,0,1-.44-5.75,33.19,33.19,0,0,1,0-5.77,35,35,0,0,1,.44,5.75A34.48,34.48,0,0,1,82.3,423.37Z" style="fill:#e0e0e0"></path><path d="M87,423.62a37.67,37.67,0,0,1-.2-5.95,35.69,35.69,0,0,1,.3-5.95,37.77,37.77,0,0,1,.2,5.95A35.69,35.69,0,0,1,87,423.62Z" style="fill:#e0e0e0"></path><path d="M91.43,423a80.68,80.68,0,0,1,1.2-12.4,38.82,38.82,0,0,1-.35,6.23A38.42,38.42,0,0,1,91.43,423Z" style="fill:#e0e0e0"></path><path d="M97.13,422.37a20.92,20.92,0,0,1,.7-5.29A21.53,21.53,0,0,1,99.39,412a45.7,45.7,0,0,1-1.08,5.21A46.1,46.1,0,0,1,97.13,422.37Z" style="fill:#e0e0e0"></path><path d="M47.33,369.82v8.87a3.49,3.49,0,0,0,3.49,3.49h60.65a3.49,3.49,0,0,0,3.49-3.49v-8.87Z" style="fill:#f5f5f5"></path><polygon points="52.59 382.18 53.09 385 109.06 388.99 110.47 382.18 52.59 382.18" style="fill:#e0e0e0"></polygon><path d="M56.46,369.87s-23.58-27.19-21-28.17,23.58,14.08,23.58,14.08-18-40.28-14.41-43.23,22.6,35.7,22.6,35.7-3-56.33,0-57S81,347.6,81,347.6s16-52.08,20.63-52.08-4.91,50.11-4.91,50.11,19-32.09,21.94-27.84-13.43,39-13.43,39,23.91-20,24.89-17.36-25.87,30.46-25.87,30.46Z" style="fill:#ebebeb"></path><path d="M53.17,328.93c.17-.08,4.35,8.89,9.35,20s8.91,20.22,8.75,20.3-4.35-8.9-9.34-20S53,329,53.17,328.93Z" style="fill:#e0e0e0"></path><path d="M72.22,333.94c.18,0,.88,7.89,1.56,17.65s1.08,17.68.9,17.69-.87-7.88-1.55-17.65S72.05,334,72.22,333.94Z" style="fill:#e0e0e0"></path><path d="M98.5,308.71a2.67,2.67,0,0,1-.14.64l-.52,1.79-2,6.56c-1.66,5.54-3.9,13.21-6.17,21.74s-4.16,16.3-5.48,21.93c-.64,2.75-1.17,5-1.56,6.67-.18.73-.33,1.33-.44,1.81a2.49,2.49,0,0,1-.2.62,2.39,2.39,0,0,1,.07-.64c.09-.5.19-1.1.32-1.84.3-1.59.76-3.89,1.36-6.72,1.21-5.66,3-13.46,5.3-22s4.59-16.19,6.36-21.7c.89-2.76,1.63-5,2.17-6.51.26-.7.47-1.28.64-1.75A2.49,2.49,0,0,1,98.5,308.71Z" style="fill:#e0e0e0"></path><path d="M109.86,337.75c.15.1-4.45,7-10.28,15.32s-10.66,15.06-10.81,15,4.46-7,10.28-15.33S109.71,337.64,109.86,337.75Z" style="fill:#e0e0e0"></path><path d="M64.42,369.29a9.35,9.35,0,0,1-2.06-1.47,58.67,58.67,0,0,1-8.52-8.74,9,9,0,0,1-1.42-2.1c.15-.11,2.6,2.85,5.92,6.24S64.54,369.14,64.42,369.29Z" style="fill:#e0e0e0"></path><path d="M78.74,358.49c.18,0,.56,2.49.84,5.61s.37,5.65.19,5.66-.55-2.49-.83-5.6S78.57,358.51,78.74,358.49Z" style="fill:#e0e0e0"></path><rect x="361.38" y="76.09" width="104.48" height="151.44" style="fill:#e0e0e0"></rect><rect x="356.15" y="76.09" width="104.48" height="151.44" style="fill:#f5f5f5"></rect><rect x="369.13" y="92.49" width="78.52" height="118.63" style="fill:#fff"></rect><path d="M447.64,211.13s0-.2,0-.58,0-1,0-1.69c0-1.49,0-3.67,0-6.5,0-5.69,0-14-.07-24.44,0-20.92-.08-50.54-.13-85.43l.26.26-78.5,0h0l.28-.29c0,44.76,0,86-.06,118.64l-.22-.23,57.15.12,15.79.06,4.14,0,1.43,0-1.38,0-4.11,0-15.73,0-57.29.12h-.23v-.22c0-32.62,0-73.88-.06-118.64v-.28h.3l78.5,0h.26v.26c0,35-.09,64.64-.13,85.6,0,10.44,0,18.71-.07,24.38,0,2.81,0,5,0,6.45,0,.72,0,1.27,0,1.66S447.64,211.13,447.64,211.13Z" style="fill:#e0e0e0"></path><path d="M460.92,76.09a18.25,18.25,0,0,1-1.87,2.71c-1.21,1.62-2.93,3.83-4.9,6.22s-3.8,4.5-5.16,6a18.36,18.36,0,0,1-2.3,2.35,18.91,18.91,0,0,1,2-2.61c1.4-1.7,3.13-3.79,5-6.11l5-6.1A18.4,18.4,0,0,1,460.92,76.09Z" style="fill:#e0e0e0"></path><path d="M448,210.74a97.1,97.1,0,0,0,13.7,17.13" style="fill:#fff"></path><path d="M461.74,227.87a15.16,15.16,0,0,1-2.39-2.17,76.49,76.49,0,0,1-5.17-5.83,73.63,73.63,0,0,1-4.54-6.32,15.36,15.36,0,0,1-1.6-2.81,21.84,21.84,0,0,1,1.93,2.59c1.15,1.61,2.77,3.82,4.66,6.19s3.69,4.43,5,5.9A20.87,20.87,0,0,1,461.74,227.87Z" style="fill:#e0e0e0"></path><path d="M356.13,227.41l13.69-16.89" style="fill:#fff"></path><path d="M369.82,210.52a105.09,105.09,0,0,1-6.63,8.62,104.27,104.27,0,0,1-7.06,8.27,103.5,103.5,0,0,1,6.62-8.62A105,105,0,0,1,369.82,210.52Z" style="fill:#e0e0e0"></path><path d="M356.15,76.09A96.48,96.48,0,0,1,362.79,84a93.38,93.38,0,0,1,6.19,8.3,98.59,98.59,0,0,1-6.64-7.94A93.38,93.38,0,0,1,356.15,76.09Z" style="fill:#e0e0e0"></path><rect x="396.89" y="132.28" width="26.29" height="36.13" style="fill:#e0e0e0"></rect></g><g id="freepik--Table--inject-2"><path d="M480.19,426.58c0,.14-104,.26-232.18.26s-232.2-.12-232.2-.26,103.94-.26,232.2-.26S480.19,426.44,480.19,426.58Z" style="fill:#263238"></path></g><g id="freepik--Character--inject-2"><path d="M301.49,137a10.32,10.32,0,0,0-11-4.8,14,14,0,0,0-17.32,1.14,12.67,12.67,0,0,0-12.37.34,12.87,12.87,0,0,0-6,10.91,10.69,10.69,0,0,0-10.65,6.09,11,11,0,0,0,2.42,12.18,10.22,10.22,0,0,0,5.26,19.61L300.23,149A10.5,10.5,0,0,0,301.49,137Z" style="fill:#263238"></path><path d="M250.47,183.92A42.7,42.7,0,0,1,291,142.21l2.21-.1c23.9.3,37.13,21,36.31,45.17l.68,80.49L327.43,278l-22.32,35.86-26.34-25.11-4-23.85s-23.09-2.53-24.57-25.7C249.49,228,249.88,204.87,250.47,183.92Z" style="fill:#ffbf9d"></path><path d="M274.58,264.9s14.68.21,29.56-10.29c0,0-5.44,17-28.41,16Z" style="fill:#ff9a6c"></path><path d="M258.94,206.33a3.33,3.33,0,0,0,3.32,3.2,3.13,3.13,0,0,0,3.22-3.15,3.31,3.31,0,0,0-3.32-3.19A3.12,3.12,0,0,0,258.94,206.33Z" style="fill:#263238"></path><path d="M255.78,196.23c.43.41,2.81-1.56,6.33-1.72s6.2,1.51,6.55,1.05c.18-.2-.27-1-1.44-1.73a8.91,8.91,0,0,0-5.27-1.38,8.51,8.51,0,0,0-5,1.9C255.9,195.24,255.57,196,255.78,196.23Z" style="fill:#263238"></path><path d="M290.24,205.2a3.32,3.32,0,0,0,3.33,3.19,3.13,3.13,0,0,0,3.22-3.14,3.31,3.31,0,0,0-3.32-3.19A3.13,3.13,0,0,0,290.24,205.2Z" style="fill:#263238"></path><path d="M289.43,194.16c.43.41,2.82-1.56,6.34-1.71s6.19,1.5,6.55,1.05c.17-.2-.27-1-1.45-1.74a9,9,0,0,0-5.27-1.38,8.54,8.54,0,0,0-5,1.91C289.55,193.18,289.22,194,289.43,194.16Z" style="fill:#263238"></path><path d="M279.2,221.1c0-.2-2.21-.48-5.78-.77-.9-.05-1.76-.2-1.94-.81a4.66,4.66,0,0,1,.46-2.73c.73-2.24,1.5-4.58,2.3-7,3.19-10,5.44-18.27,5-18.4s-3.31,7.91-6.49,17.94q-1.16,3.71-2.19,7.09a5.29,5.29,0,0,0-.28,3.59,2.26,2.26,0,0,0,1.54,1.26,6.33,6.33,0,0,0,1.54.15C277,221.39,279.19,221.31,279.2,221.1Z" style="fill:#263238"></path><path d="M256.13,186.63c.63.81,3.05,0,6-.06s5.4.55,6-.3c.25-.41-.14-1.22-1.23-2a8.57,8.57,0,0,0-9.61.29C256.19,185.4,255.86,186.23,256.13,186.63Z" style="fill:#263238"></path><path d="M288.75,183.25c.7.8,3.39-.05,6.63-.1s6,.53,6.61-.32c.28-.42-.16-1.23-1.37-2a10.36,10.36,0,0,0-10.67.34C288.82,182,288.45,182.85,288.75,183.25Z" style="fill:#263238"></path><path d="M252.13,173.19s5.29-14.8,12-18.51c8.16-4.5,12.24,4.64,20.11,2s15.66-6.94,24.13-1.08c9.28,6.42,5.34,11.41,6.42,21.67,4.38,41.6,12.51,53.05,13.64,33.3.13-2.16,5.94-4.15,6.35-13.28.53-11.85.24-26.18-2.79-34.43-2.55-7-6.78-11.64-14.18-16.68-11.68-7.95-27.14-7.42-37.58-5.86S250.24,155.05,252.13,173.19Z" style="fill:#263238"></path><path d="M327,210a6.22,6.22,0,0,1,6.4-6.38c4.3.21,9.18,2.45,9.36,11.39.31,15.88-15.51,12.83-15.54,12.37C327.17,227.09,327.06,216.66,327,210Z" style="fill:#ffbf9d"></path><path d="M330.49,221.38c.07,0,.28.19.75.4a2.71,2.71,0,0,0,2,0c1.65-.64,3-3.32,3-6.18a9.24,9.24,0,0,0-.85-4,3.21,3.21,0,0,0-2.09-2.09,1.38,1.38,0,0,0-1.6.78c-.2.45-.1.76-.18.79s-.34-.26-.23-.92a1.79,1.79,0,0,1,.6-1,2,2,0,0,1,1.5-.43,3.9,3.9,0,0,1,2.91,2.42,9.66,9.66,0,0,1,1,4.41c0,3.2-1.59,6.22-3.85,6.92a2.93,2.93,0,0,1-2.51-.39C330.53,221.77,330.44,221.41,330.49,221.38Z" style="fill:#ff9a6c"></path><path d="M325.1,179.32c-2,1.5-4,3.05-6.48,3.41s-5.31-.93-5.85-3.37c-.24-1.09,0-2.39-.8-3.21-.91-1-2.47-.58-3.78-.38A10.07,10.07,0,0,1,297.45,169c-1.07,1.82-3.79,1.87-5.6.8s-3.05-2.89-4.51-4.42-3.46-2.86-5.51-2.47c-1.15.22-2.2,1-3.37.92-2.07-.09-3.19-2.48-3.61-4.53s-.79-4.45-2.58-5.49-3.73-.27-5.61.1-4.35,0-4.93-1.82a3.81,3.81,0,0,1,.55-2.9,10.06,10.06,0,0,1,11.78-4.45,13.69,13.69,0,0,1,25.12-3.87A14,14,0,0,1,311.49,137a14.36,14.36,0,0,1,10.26,8,10.33,10.33,0,0,1,10.75,3.13,10.63,10.63,0,0,1,1.41,11.22c2.9,1.5,5.46,4.22,5.68,7.49s-2.76,6.7-5.93,6a5.91,5.91,0,0,1-1.83,7.55,5.79,5.79,0,0,1-7.57-1.44" style="fill:#263238"></path><path d="M334.8,172.71c.06,0,.36,1.32-.81,3.1a5.08,5.08,0,0,1-3.05,2,5.43,5.43,0,0,1-4.53-1.11l.66-.13a16,16,0,0,1-2.92,4.1,9,9,0,0,1-2.77,1.93,6.06,6.06,0,0,1-3.13.44,6.22,6.22,0,0,1-4.66-2.41,9.34,9.34,0,0,1-1.43-3.24,3.09,3.09,0,0,1-.19-1.28c.07,0,.22.42.52,1.17a10.55,10.55,0,0,0,1.6,3c1.6,2.2,6.5,3.14,9.42-.22a15.77,15.77,0,0,0,2.79-3.84l.26-.48.4.35a4.76,4.76,0,0,0,3.84,1,4.58,4.58,0,0,0,2.76-1.65A7.43,7.43,0,0,0,334.8,172.71Z" style="fill:#455a64"></path><path d="M303.35,137.89c0,.06-.4.13-1.08.47a5.3,5.3,0,0,0-2.33,2.2l-.17.31-.23-.28a19.7,19.7,0,0,0-7.89-5.85,15.3,15.3,0,0,0-6.24-1.09,12.67,12.67,0,0,0-6.53,2.23,13,13,0,0,0-3.76,4,10.88,10.88,0,0,0-1.48,4.86l0,.51-.48-.11a8.53,8.53,0,0,0-9.83,5.13,12.25,12.25,0,0,0-.74,4.74,3.49,3.49,0,0,1-.25-1.29,9,9,0,0,1,4-8.07,9.27,9.27,0,0,1,7-1.33l-.51.39a11.53,11.53,0,0,1,1.55-5.28,13.59,13.59,0,0,1,4-4.27,13.25,13.25,0,0,1,7-2.36,15.67,15.67,0,0,1,6.56,1.23,19.27,19.27,0,0,1,8,6.28l-.4,0a5.33,5.33,0,0,1,2.64-2.2A2.39,2.39,0,0,1,303.35,137.89Z" style="fill:#455a64"></path><path d="M278.09,233c.12-.36.92-.41,2-.71a15.36,15.36,0,0,0,4.12-1.77,19.56,19.56,0,0,0,2-1.45,13.39,13.39,0,0,0,1.36-1.44c.71-.88,1.06-1.6,1.44-1.57s.66.95.2,2.4a7.17,7.17,0,0,1-1.26,2.26,10.24,10.24,0,0,1-2.36,2,8.81,8.81,0,0,1-5.38,1.39C278.73,234,278,233.34,278.09,233Z" style="fill:#263238"></path><path d="M376.64,423.57l4.42-80.2-4.15-65.3L331.62,266s-5.81,23.88-27.12,26c-24.31,2.39-29.21-22.54-29.21-22.54l-13.78.73-24.32,2.54a37.77,37.77,0,0,0-23.73,11.63l-.12.13-46.58,50.17,43.15,40,16.62-18.25,6.22,59.12-1.87,10.76,142.52-1Z" style="fill:#352786"></path><path d="M373.87,277.27s15.77,6.13,23.33,15.27c14.44,17.44,39.92,46.33,39.92,46.33l-44,39.38-19.24-19.11Z" style="fill:#352786"></path><path d="M380.66,312.69c.28,0-.13,22.42-.92,50.06s-1.63,50.05-1.91,50,.14-22.42.92-50.07S380.39,312.68,380.66,312.69Z" style="fill:#263238"></path><path d="M220.6,299.53c.27,0,2.25,16.77,4.42,37.51s3.7,37.58,3.43,37.61-2.25-16.76-4.42-37.51S220.33,299.56,220.6,299.53Z" style="fill:#263238"></path><g style="opacity:0.30000000000000004"><path d="M378.83,369.86a65.61,65.61,0,0,0,1-52.83Z"></path></g><g style="opacity:0.30000000000000004"><path d="M276.87,371.07c-13.48-6.07-27.84-3.94-32.19,4.53-1.88,8.62,6,19.46,18.58,25.14,13.47,6.07,27.41,3.91,31.75-4.56C296.9,387.56,289.46,376.75,276.87,371.07Z" style="fill:#fff"></path></g><path d="M277.62,368.35c-13.76-6.19-28.16-4-32.18,4.93a11.45,11.45,0,0,0-.76,2.32c4.35-8.47,18.44-10.47,31.91-4.4,12.6,5.68,20.27,16.43,18.39,25.05.09-.17.18-.35.26-.53C299.26,386.8,291.37,374.55,277.62,368.35Z" style="fill:#455a64"></path><path d="M263.06,400.65c-12.59-5.68-20.26-16.43-18.38-25-.09.17-.18.35-.26.53-4,8.92,3.87,21.17,17.62,27.37s28.16,4,32.18-4.93a11.88,11.88,0,0,0,.76-2.32C290.63,404.72,276.54,406.72,263.06,400.65Z" style="fill:#263238"></path><path d="M295.39,403.16h0a2.37,2.37,0,0,1-1.44-3l3-8.32a2.38,2.38,0,0,1,3-1.44h0a2.38,2.38,0,0,1,1.44,3l-3,8.32A2.38,2.38,0,0,1,295.39,403.16Z" style="fill:#455a64"></path><path d="M328,410.11l-33.14-10.39,2.17-6.93,33.14,10.39a3.64,3.64,0,0,1,2.38,4.55h0A3.64,3.64,0,0,1,328,410.11Z" style="fill:#455a64"></path><path d="M299.33,420.9c-3.85,1.28-7.21-3.06-5.2-6.59,3-5.23,7.43-12.63,9.95-14.55,3.06-2.34,17.91-8.08,24.66-10.63a8.84,8.84,0,0,1,6.59.14c6.22,2.66,19.58,8.21,23.55,8.59,5.23.49,15,28.73,15,28.73a10.57,10.57,0,0,1-6.3,5.3c-4.89,1.75-16.38-1.92-16.38-1.92s-9.17-.73-11.66.91-8,3.2-9.46,2.83-4.5-3.34-3.22-5.74l1-2.26s-7.55,1.93-9.52-.71a8.75,8.75,0,0,1-1.62-6.06s-5.65-.66-6.46-3.74,1.82-5.87,1.82-5.87l2-2.48-5.43,2.56s-5.49,8.39-8.16,10.8A3.38,3.38,0,0,1,299.33,420.9Z" style="fill:#ffbf9d"></path><path d="M346.25,399.76l66.26-8.31L398.75,373.2l35-31.27L463.5,379.3c6.91,8.15,11.25,17.42,10.84,28.25-.27,7-3.2,14.23-12,18.46-20.73,9.95-102.4,1.88-102.4,1.88Z" style="fill:#ffbf9d"></path><path d="M324.51,399.61a45.09,45.09,0,0,1-5.44,4.24,44,44,0,0,1-5.74,3.82,45.09,45.09,0,0,1,5.44-4.24A46.92,46.92,0,0,1,324.51,399.61Z" style="fill:#ff9a6c"></path><path d="M330.05,411.48c.06.15-3.07,1.53-6.72,3.61s-6.49,4-6.58,3.85a9.19,9.19,0,0,1,1.76-1.39c1.13-.8,2.73-1.86,4.57-2.91a46.67,46.67,0,0,1,4.85-2.41A9,9,0,0,1,330.05,411.48Z" style="fill:#ff9a6c"></path><path d="M337.79,420.14a35.73,35.73,0,0,1-5.17,3.18A34.59,34.59,0,0,1,327.2,426a70.31,70.31,0,0,1,10.59-5.9Z" style="fill:#ff9a6c"></path><path d="M444.7,384.41a5.74,5.74,0,0,1-1.32.31l-3.62.68c-3.07.56-7.3,1.35-11.95,2.31s-8.85,1.9-11.88,2.6l-3.6.81a7,7,0,0,1-1.34.24,6.32,6.32,0,0,1,1.29-.44c.83-.24,2.05-.58,3.56-1,3-.79,7.21-1.79,11.87-2.75s8.9-1.69,12-2.16c1.55-.24,2.79-.41,3.66-.52A8,8,0,0,1,444.7,384.41Z" style="fill:#ff9a6c"></path><path d="M175.19,342.36s-23.66,24-36.87,38.89c-11.23,12.66-11,25.18-2.5,35.24,7,8.25,41.81,16.26,41.81,16.26L181.75,400l-6.06-3.4,29.95-26Z" style="fill:#ffbf9d"></path><path d="M219.66,410.17s-1.93-8.06-4.67-10-8,0-8,0a8,8,0,0,0-3.79-4.21c-2.75-1.27-14.76-5.06-14.76-5.06s-6.12-3.17-10.12,1.26c0,0-2.11,3.37-3.17,3.58s-6.4-.37-7.77,6.28-4.06,8.26-2.68,13-1.09,6.23-.38,9.6,4.3,8.37,7.25,8.19,19.82,0,19.82,0,6.53-.39,6.74-6.5c0,0,3.59,0,3.59-4.22,0,0,4.22,2.32,5.9-1.26,0,0,6.54.84,7-4.22l-1.69-7Z" style="fill:#ffbf9d"></path><path d="M219.66,410.17l-.42,0-1.29-.06-5.07-.29.1-.12c.48,1.9,1.06,4.24,1.73,6.94v.05a4.32,4.32,0,0,1-2.3,3.6,8.73,8.73,0,0,1-4.82.78l.18-.1a3.46,3.46,0,0,1-2.64,2.07,6.17,6.17,0,0,1-3.52-.71l.3-.17a4.9,4.9,0,0,1-.87,3,3.92,3.92,0,0,1-2.91,1.46l.21-.21a6.48,6.48,0,0,1-2,4.65,8.54,8.54,0,0,1-4.93,2.08h0c-5.63,0-11.68-.1-18,0l-1.19,0-.59,0c-.22,0-.44,0-.66,0a5.08,5.08,0,0,1-2.27-1.1,13.34,13.34,0,0,1-3.2-3.84,9.76,9.76,0,0,1-1.51-4.86c0-1.79.87-3.35.91-5a8.63,8.63,0,0,0-.15-2.09c-.13-.67-.35-1.36-.49-2.09a7.73,7.73,0,0,1-.11-2.2,10,10,0,0,1,.47-2.12c.46-1.36,1-2.63,1.49-3.93a32.5,32.5,0,0,0,1.1-3.94,9,9,0,0,1,1.69-3.77,6.64,6.64,0,0,1,3.43-2.18,10.37,10.37,0,0,1,2-.32,5.75,5.75,0,0,0,.91-.1,2,2,0,0,0,.68-.49,17.62,17.62,0,0,0,2.27-3l0,0h0a7.33,7.33,0,0,1,5.09-2.41,11.34,11.34,0,0,1,5.31,1.11l0,0c3.92,1.26,7.59,2.46,11,3.65.85.3,1.67.6,2.48.91a10.61,10.61,0,0,1,2.3,1.11,8.56,8.56,0,0,1,2.9,3.77l-.22-.1a16.3,16.3,0,0,1,4.31-.83,6.44,6.44,0,0,1,3.78.84,7.67,7.67,0,0,1,2.07,2.64,23.13,23.13,0,0,1,1.13,2.55c.58,1.56.94,2.79,1.16,3.63l.24.95a1.59,1.59,0,0,1,0,.33s0-.1-.1-.32l-.28-.94c-.25-.82-.63-2.05-1.24-3.59a22.42,22.42,0,0,0-1.16-2.5,7.38,7.38,0,0,0-2-2.53,6.17,6.17,0,0,0-3.63-.76,15.89,15.89,0,0,0-4.2.84l-.15.05-.07-.15a8.14,8.14,0,0,0-2.78-3.58,10.51,10.51,0,0,0-2.24-1.06c-.8-.3-1.62-.59-2.47-.89-3.38-1.17-7.06-2.35-11-3.59h0a10.84,10.84,0,0,0-5.07-1,7.54,7.54,0,0,0-2.58.65,7.21,7.21,0,0,0-2.19,1.62l0,0a18.68,18.68,0,0,1-2.34,3.06,2.4,2.4,0,0,1-.88.6,6.56,6.56,0,0,1-1,.12,9.84,9.84,0,0,0-1.88.31,6.06,6.06,0,0,0-3.16,2,8.29,8.29,0,0,0-1.59,3.56,32.7,32.7,0,0,1-1.12,4c-.45,1.32-1,2.61-1.48,3.92a10.06,10.06,0,0,0-.45,2,7.53,7.53,0,0,0,.11,2.06c.12.67.34,1.35.49,2.09a8.61,8.61,0,0,1,.16,2.21c-.05,1.79-.88,3.39-.91,5a9.38,9.38,0,0,0,1.44,4.6,12.9,12.9,0,0,0,3.06,3.69,4.68,4.68,0,0,0,2,1c.19,0,.37,0,.55,0l.61,0,1.19,0c6.37-.06,12.41,0,18,.07h0a8.13,8.13,0,0,0,4.66-1.95,6,6,0,0,0,1.89-4.33v-.2h.21a3.52,3.52,0,0,0,2.59-1.28,4.51,4.51,0,0,0,.79-2.72v-.32l.3.15a5.76,5.76,0,0,0,3.27.67,3.08,3.08,0,0,0,2.37-1.84l.05-.11h.14a8.54,8.54,0,0,0,4.62-.71,4,4,0,0,0,2.17-3.34v0c-.64-2.71-1.19-5.06-1.65-7l0-.13h.14l5,.4,1.31.12A4.35,4.35,0,0,1,219.66,410.17Z" style="fill:#ff9a6c"></path><path d="M198.32,426.93a9.36,9.36,0,0,0-3-1.36c-1-.26-2.2-.43-3.56-.66l-4.39-.74c-3.11-.54-5.92-1.06-8-1.47a22,22,0,0,1-3.27-.75,19.61,19.61,0,0,1,3.34.39c2,.31,4.87.77,8,1.32l4.39.78a34.56,34.56,0,0,1,3.57.77,7.18,7.18,0,0,1,2.24,1.07C198.14,426.64,198.34,426.91,198.32,426.93Z" style="fill:#ff9a6c"></path><path d="M182.85,410.76c0-.07,1.12.57,3,1.38s4.5,1.73,7.37,3a20.38,20.38,0,0,1,6.67,4.38,10.25,10.25,0,0,1,1.48,1.93,2.52,2.52,0,0,1,.38.81,28.3,28.3,0,0,0-2.12-2.48,22.43,22.43,0,0,0-6.62-4.16c-2.83-1.23-5.49-2.19-7.32-3.12a22.13,22.13,0,0,1-2.11-1.17C183.08,411,182.83,410.79,182.85,410.76Z" style="fill:#ff9a6c"></path><path d="M208.09,420.6a4.65,4.65,0,0,1-.78-.89,26,26,0,0,1-1.78-2.69c-.69-1.17-1.44-2.6-2.3-4.16a29.16,29.16,0,0,0-3.19-4.8,14,14,0,0,0-4.49-3.47c-1.59-.8-3.11-1.36-4.35-1.91a20,20,0,0,1-2.86-1.49,3.72,3.72,0,0,1-.93-.72,6.54,6.54,0,0,1,1,.55,27.39,27.39,0,0,0,2.9,1.32c1.25.51,2.78,1,4.41,1.82a14.12,14.12,0,0,1,4.68,3.56,27.62,27.62,0,0,1,3.21,4.91l2.2,4.21c.64,1.19,1.22,2.11,1.62,2.76A5,5,0,0,1,208.09,420.6Z" style="fill:#ff9a6c"></path><path d="M206.63,399.51a58.79,58.79,0,0,1,3.22,5.23,26.31,26.31,0,0,1,2.77,5.49A58.79,58.79,0,0,1,209.4,405,26.31,26.31,0,0,1,206.63,399.51Z" style="fill:#ff9a6c"></path><path d="M258.29,418.7l-.23-.66c-.65,0-.87-.64-.22-.64l-.23-.66c-.65,0-.87-.65-.22-.65l-.23-.66c-.65,0-.87-.64-.23-.64l-.22-.66c-.65,0-.88-.65-.23-.65l-.23-.66c-.64,0-.87-.64-.22-.65l-.23-.65c-.65,0-.87-.65-.22-.65l-.23-.66c-.65,0-.87-.64-.22-.65l-.23-.65c-.65,0-.88-.65-.23-.65l-.22-.66c-.65,0-.88-.64-.23-.65l-.23-.66c-.65,0-.87-.64-.22-.64l-.23-.66c-.65,0-.87-.64-.22-.65l-.23-.66c-.65,0-.87-.64-.22-.64l-.23-.66c-.65,0-.88-.64-.22-.65l-.23-.66a.67.67,0,0,1-.61-.32h-.89c.15.43-.83.44-1,0l-.89,0c.15.42-.84.44-1,0H247c.15.42-.84.43-1,0h-.89c.15.42-.83.44-1,0h-.89c.15.43-.84.44-1,0h-.88c.15.43-.84.44-1,0h-.89c.15.43-.83.44-1,0h-.89c.15.42-.84.43-1,0h-.89c.16.42-.83.43-1,0h-.89c.06.18-.11.32-.38.33l.24.65c.65,0,.88.63.22.64l.24.65c.66,0,.87.63.23.64l.23.65c.65,0,.88.63.23.64l.23.65c.65,0,.88.64.23.64l.23.65c.65,0,.88.64.23.64l.23.65c.66,0,.88.64.23.64l.23.65c.65,0,.89.64.23.64l.24.66c.65,0,.88.63.23.64l.23.65c.65,0,.88.63.23.64l.23.65c.64,0,.88.63.23.64l.23.65c.65,0,.88.64.23.64l.23.65c.65,0,.88.64.23.64l.23.65c.65,0,.88.64.23.64l.24.65c.64,0,.88.64.23.64l.23.65a.66.66,0,0,1,.6.32h.88c-.15-.42.83-.42,1,0h.88c-.15-.42.83-.42,1,0h.88c-.15-.42.83-.42,1,0h.88c-.15-.42.83-.42,1,0h.88c-.15-.42.83-.42,1,0h.88c-.15-.42.83-.42,1,0h.88c-.15-.42.83-.42,1,0h.89c-.15-.43.83-.43,1,0h.88c-.14-.42.83-.43,1,0h.88c-.06-.18.11-.32.38-.32l-.23-.66C257.87,419.35,257.64,418.7,258.29,418.7Z" style="fill:#fff"></path><path d="M258.29,418.7s-.15,0-.28.1a.21.21,0,0,0,0,.29.65.65,0,0,0,.51.22h.05l0,.05.24.66,0,.06h-.07c-.19,0-.37.11-.31.27l0,.07h-1.06l0-.08a.49.49,0,0,0-.45-.24c-.21,0-.39.09-.33.24l0,.09h-1.11l0-.09a.44.44,0,0,0-.43-.22c-.2,0-.37.08-.31.22l0,.1h-1.16l0-.11a.46.46,0,0,0-.41-.21c-.19,0-.35.08-.29.21l0,.11h-1.19l0-.12c0-.11-.19-.19-.38-.2s-.34.08-.28.2l0,.13h-1.22l0-.13c0-.1-.18-.18-.37-.19s-.32.08-.27.19l.06.14h-1.24l-.05-.14a.39.39,0,0,0-.36-.18c-.18,0-.31.07-.26.18l.07.14h-1.27l-.05-.15c0-.09-.16-.16-.34-.17s-.3.07-.26.17l.07.15h-1.29l0-.16c0-.08-.15-.15-.33-.16s-.29.07-.25.16l.08.16h-1.31l-.06-.16c0-.08-.14-.14-.32-.15s-.28.06-.24.15l.08.17h-1.35l0-.17c0-.06-.17-.15-.33-.15H240l-.06-.17-.23-.65-.07-.18h.23c.33,0,.25-.3-.11-.3h-.22l-.07-.18-.23-.65-.07-.18h.23c.33,0,.26-.3-.1-.29h-.23l-.06-.18-.24-.65-.07-.19h.24c.32,0,.25-.28-.1-.28h-.24l-.06-.18c-.07-.2-.16-.42-.24-.65l-.07-.19h.25c.31,0,.24-.28-.1-.28h-.24l-.07-.18-.23-.65-.07-.2H238c.32,0,.25-.26-.09-.27h-.25l-.07-.18-.23-.65-.07-.2h.25c.3,0,.24-.26-.09-.26h-.25l-.07-.19-.23-.65-.08-.2h.26c.3,0,.24-.25-.09-.25h-.26l-.07-.19-.23-.65-.07-.2h.25c.3,0,.24-.25-.09-.25h-.25l-.07-.19L236,409l-.08-.2h.26c.3,0,.24-.25-.09-.25h-.25l-.07-.19q-.12-.31-.24-.66l-.07-.2h.26c.29,0,.23-.24-.09-.24h-.26l-.07-.2-.23-.65-.07-.2h.26c.29,0,.23-.24-.09-.24h-.26l-.07-.2-.23-.65-.08-.2h.27c.29,0,.23-.24-.09-.24h-.26l-.07-.2c-.08-.2-.16-.43-.24-.65l-.07-.2h.26c.29,0,.24-.24-.08-.24H234l-.08-.2c-.07-.2-.15-.42-.22-.64h0l-.07-.2h.26c.31,0,.22-.25-.08-.24h-.27l-.07-.2-.23-.65-.07-.21h.26c.14,0,.21-.08.19-.13l-.12-.2h1.48l0,.2c0,.06.11.11.27.11s.22-.06.19-.12l-.08-.2h1.44l0,.19c0,.07.11.12.28.12s.22-.06.19-.12l-.09-.2h1.44l.05.2c0,.07.12.12.28.12s.22-.06.19-.12l-.08-.2h1.44l0,.2c0,.07.11.12.28.12s.22-.06.19-.12l-.08-.2h1.43l.05.2c0,.07.11.12.28.12s.22-.06.2-.13l-.08-.19h1.42l.05.2c0,.07.12.12.29.12s.22-.06.19-.13l-.08-.19h1.42l.05.2c0,.07.12.12.29.12s.23-.06.2-.13l-.08-.19H248l.05.18c0,.08.13.13.3.13s.23-.06.2-.13l-.08-.19h1.4l0,.18c0,.08.14.13.3.14s.24-.07.21-.14l-.07-.19h1.39l0,.18c0,.06.16.15.31.14h.23l.06.19.23.66.06.18h-.23c-.36,0-.23.3.1.29h.22l.07.18.22.66.06.18h-.22c-.37,0-.23.32.1.3h.22l.06.18c.08.23.15.45.23.66l.05.17h-.21c-.38,0-.24.33.11.31h.21l.06.18.22.65.06.17h-.21c-.39,0-.24.35.11.33l.2,0,.06.17.22.66.06.16h-.2c-.41,0-.24.36.11.34h.2l0,.16c.08.24.15.45.23.66l0,.15h-.19c-.43,0-.24.38.12.35H255l.05.15c.08.25.16.46.23.66l0,.14h-.18c-.44,0-.23.41.13.38l.17,0,.05.15.23.66,0,.13h-.17c-.21,0-.3.1-.24.21a.39.39,0,0,0,.38.18h.16l0,.13c.09.25.16.45.22.65l0,.13h-.15c-.22,0-.31.11-.26.23a.45.45,0,0,0,.41.19h.14l0,.11c.08.26.15.46.22.66l0,.11h-.14c-.24,0-.33.12-.27.24a.47.47,0,0,0,.42.2h.13l0,.1c.09.26.16.46.22.66l0,.09H257c-.26,0-.36.14-.28.27a.52.52,0,0,0,.44.2h.11l0,.08.22.66,0,.08h-.1c-.28,0-.38.16-.28.3a.56.56,0,0,0,.46.21h.08l0,.06c.1.3.16.49.21.66l0,.05h-.06c-.36,0-.42.23-.28.38a.67.67,0,0,0,.47.18h0v0l.16.53c0,.1,0,.14,0,.13s0-.05-.07-.15L258,418l.05,0a.82.82,0,0,1-.58-.22.32.32,0,0,1-.08-.33.46.46,0,0,1,.41-.19l-.05.06-.24-.66.1.06a.78.78,0,0,1-.66-.3c-.18-.21,0-.5.39-.48l-.07.07-.24-.66.14.08a.83.83,0,0,1-.71-.33c-.16-.24.06-.51.42-.49l-.09.1c-.06-.2-.14-.4-.23-.66l.16.1a.85.85,0,0,1-.74-.37c-.16-.25.09-.51.44-.49l-.1.11-.23-.66.18.11a.85.85,0,0,1-.76-.38c-.16-.26.11-.52.46-.49l-.11.12-.24-.66.2.12a.89.89,0,0,1-.78-.4c-.15-.28.13-.52.47-.5l-.12.13c-.07-.2-.15-.41-.23-.66l.22.13a.88.88,0,0,1-.81-.42c-.15-.27.15-.52.49-.5l-.13.14-.24-.65.24.14a1,1,0,0,1-.83-.43c-.14-.29.17-.53.5-.51l-.14.15c-.07-.21-.14-.42-.23-.66l.25.15a.92.92,0,0,1-.84-.44c-.15-.3.18-.53.51-.51L254,407c-.07-.21-.15-.42-.23-.65l.26.15a.92.92,0,0,1-.85-.45c-.15-.3.18-.53.51-.52l-.15.17-.23-.66.27.16a.94.94,0,0,1-.86-.46c-.15-.3.19-.54.52-.52l-.16.17c-.07-.21-.15-.42-.23-.66l.28.17a.93.93,0,0,1-.87-.47c-.15-.3.2-.54.53-.52l-.17.18-.23-.66.29.17a.93.93,0,0,1-.88-.48c-.14-.3.21-.54.53-.52l-.17.18-.23-.66.3.18a1,1,0,0,1-.9-.49l.3.17-.89,0,.17-.19a.33.33,0,0,1-.11.39.75.75,0,0,1-.43.12,1.18,1.18,0,0,1-.53-.1.74.74,0,0,1-.39-.39l.3.18h-.88l.17-.19a.32.32,0,0,1-.11.39.79.79,0,0,1-.44.13,1.28,1.28,0,0,1-.52-.11.76.76,0,0,1-.4-.39l.31.18-.89,0,.18-.2a.33.33,0,0,1-.11.4.81.81,0,0,1-.44.12,1.17,1.17,0,0,1-.53-.11.73.73,0,0,1-.4-.39l.32.19h-.89l.18-.19a.32.32,0,0,1-.11.39.81.81,0,0,1-.44.13,1.37,1.37,0,0,1-.54-.11.72.72,0,0,1-.39-.4l.32.19h-.89l.18-.19a.31.31,0,0,1-.11.39.75.75,0,0,1-.45.13,1.33,1.33,0,0,1-.53-.11.73.73,0,0,1-.4-.39l.32.19h-.88l.18-.2a.33.33,0,0,1-.11.4.76.76,0,0,1-.45.12,1.09,1.09,0,0,1-.54-.11.76.76,0,0,1-.4-.39l.33.19h-.89l.19-.2a.34.34,0,0,1-.11.4.88.88,0,0,1-.46.13,1.19,1.19,0,0,1-.53-.12.73.73,0,0,1-.4-.39l.33.19h-.89l.19-.2a.33.33,0,0,1-.12.4.75.75,0,0,1-.45.13,1.41,1.41,0,0,1-.54-.11.78.78,0,0,1-.4-.4l.33.2h-.88l.19-.2a.33.33,0,0,1-.12.39.77.77,0,0,1-.45.13,1.37,1.37,0,0,1-.54-.11.71.71,0,0,1-.4-.4l.33.2h-.89l.19-.2c.11.34-.23.53-.57.53l.19-.21.24.65-.34-.19a1,1,0,0,1,.94.51c.14.32-.24.55-.56.53l.19-.21v0c.08.22.16.43.23.64l-.33-.2a1.19,1.19,0,0,1,.55.13.69.69,0,0,1,.39.4c.11.33-.27.53-.57.51l.19-.2.23.65-.33-.2c.31,0,.86.2.94.53s-.27.53-.57.51l.19-.2.23.65-.33-.2c.32,0,.86.21.94.53s-.27.53-.57.51l.19-.2.23.65-.33-.2c.32,0,.86.21.94.54s-.27.52-.57.5l.19-.2.23.65-.33-.19a1.2,1.2,0,0,1,.56.13.7.7,0,0,1,.38.4c.11.33-.27.52-.57.5l.19-.2.23.65-.32-.19c.31,0,.86.21.93.53s-.27.52-.57.5l.19-.2.23.65-.32-.19c.31,0,.86.21.93.54s-.28.5-.57.49l.19-.2.23.66-.32-.19c.32,0,.86.21.92.53s-.27.5-.56.49l.18-.19.23.65-.31-.19c.32,0,.85.21.92.53s-.27.5-.56.48l.18-.18.23.65-.3-.19c.31,0,.84.22.91.53s-.27.5-.55.48l.17-.18.23.65-.3-.18c.31,0,.84.21.91.53s-.27.49-.55.47l.16-.18.23.65-.29-.17c.31,0,.84.21.9.52s-.27.48-.54.47l.16-.18.23.65-.28-.17c.31,0,.82.21.89.52s-.27.48-.54.46l.15-.17c.09.23.16.46.23.65l-.27-.16a1,1,0,0,1,.88.48l-.28-.16h.88l-.15.16c-.15-.69,1.18-.59,1.4,0l-.27-.15h.89l-.15.15c-.15-.68,1.16-.58,1.38,0l-.25-.15h.88l-.14.15c-.15-.67,1.15-.57,1.36,0l-.24-.14h.88l-.13.14c-.15-.66,1.14-.56,1.34,0l-.23-.13H249l-.13.13c-.14-.65,1.13-.55,1.32,0l-.21-.12h.88l-.11.12c-.14-.64,1.1-.54,1.29,0l-.19-.11h.88l-.11.11c-.13-.62,1.08-.52,1.26,0l-.17-.1h.88l-.09.1c-.13-.6,1-.51,1.22,0l-.15-.09h.88l-.08.08c-.11-.59,1.05-.47,1.19,0l-.12-.07h.88l-.06.06c-.08-.26.2-.39.44-.38l-.05.06c-.08-.25-.15-.47-.22-.66l.08,0a.75.75,0,0,1-.62-.3.23.23,0,0,1,0-.33A.52.52,0,0,1,258.29,418.7Z" style="fill:#263238"></path><polygon points="219.66 410.23 243.36 411.42 243.36 412.78 213.98 414.29 212.88 409.76 219.66 410.23" style="fill:#e0e0e0"></polygon></g><g id="freepik--book-2--inject-2"><path d="M276.21,467.08h116L355.83,433.2s-102.07,1-101.76,2.27a26,26,0,0,0,5.18,14.66C264.75,457.88,276.21,467.08,276.21,467.08Z" style="fill:#263238"></path><path d="M148,432.37c.2.89,11.37,36.27,11.37,36.27l116.88-1.56-3.61-4.85L148.33,428.5Z" style="fill:#263238"></path><polygon points="151.4 428.89 161.62 459.77 271.14 456.11 252.16 427.88 151.4 428.89" style="fill:#f5f5f5"></polygon><polygon points="161.62 456.8 161.43 464.1 271.13 463.86 271.14 456.11 161.62 456.8" style="fill:#e0e0e0"></polygon><polygon points="151.4 428.89 151.26 434.59 161.43 464.1 161.62 456.8 151.4 428.89" style="fill:#e0e0e0"></polygon><polygon points="271.14 456.11 271.14 463.83 379.22 463.17 379.63 455.06 271.14 456.11" style="fill:#e0e0e0"></polygon><path d="M252.16,427.88s11.41-.6,21.2-.46l74.86,1.08,31.41,26.57-108.49,1Z" style="fill:#f5f5f5"></path><path d="M271.14,463.83a1.8,1.8,0,0,1-.05-.54c0-.42,0-.93-.06-1.54,0-1.43,0-3.34-.09-5.64l0,.11-7.3-10.9c-3.18-4.8-6-9.16-8.08-12.33l-2.4-3.77a11.09,11.09,0,0,1-.82-1.42,10.21,10.21,0,0,1,1,1.31l2.54,3.68c2.12,3.11,5,7.44,8.2,12.24,2.73,4.16,5.24,8,7.2,11l0,.05v.06c0,2.3-.07,4.21-.09,5.64,0,.61,0,1.12-.06,1.54A2,2,0,0,1,271.14,463.83Z" style="fill:#263238"></path><polygon points="253.46 450.88 233.61 451.28 228.38 443.12 247.57 442.91 253.46 450.88" style="fill:#e0e0e0"></polygon><polygon points="226.87 451.22 207.01 451.22 201.78 443.07 220.97 442.86 226.87 451.22" style="fill:#e0e0e0"></polygon><polygon points="200.25 451.22 180.39 451.22 175.16 443.07 194.35 442.86 200.25 451.22" style="fill:#e0e0e0"></polygon><polygon points="247.65 439.81 217.96 439.98 211.76 431.61 240.92 431.44 247.65 439.81" style="fill:#e0e0e0"></polygon><polygon points="208.13 439.9 178.44 440.07 172.24 431.7 201.41 431.54 208.13 439.9" style="fill:#e0e0e0"></polygon><g style="opacity:0.30000000000000004"><polygon points="242.37 442.97 232.45 449.47 233.61 451.28 236.86 451.28 248.25 443.83 247.57 442.91 242.37 442.97" style="fill:#fff"></polygon></g><g style="opacity:0.30000000000000004"><polygon points="219.93 442.86 206.31 450.14 205.58 449 217.6 442.89 219.93 442.86" style="fill:#fff"></polygon></g><g style="opacity:0.30000000000000004"><polygon points="221.17 443.13 207.07 451.14 211.95 451.17 222.42 444.92 221.17 443.13" style="fill:#fff"></polygon></g><g style="opacity:0.30000000000000004"><polygon points="180.39 451.22 194.35 442.86 189.3 442.91 178.69 448.57 180.39 451.22" style="fill:#fff"></polygon></g><g style="opacity:0.30000000000000004"><polygon points="240.92 431.44 242.12 432.94 226.51 439.98 217.96 439.98 217.05 438.76 236.04 431.44 240.92 431.44" style="fill:#fff"></polygon></g><polygon points="354.02 449.88 334.16 450.27 328.93 442.12 348.12 441.9 354.02 449.88" style="fill:#e0e0e0"></polygon><polygon points="327.42 450.22 307.56 450.22 302.33 442.06 321.52 441.85 327.42 450.22" style="fill:#e0e0e0"></polygon><polygon points="300.8 450.22 280.94 450.22 275.71 442.06 294.9 441.85 300.8 450.22" style="fill:#e0e0e0"></polygon><polygon points="348.2 438.81 318.51 438.97 312.31 430.61 341.47 430.44 348.2 438.81" style="fill:#e0e0e0"></polygon><g style="opacity:0.30000000000000004"><polygon points="342.93 441.96 333 448.46 334.16 450.27 337.41 450.27 348.8 442.82 348.12 441.9 342.93 441.96" style="fill:#fff"></polygon></g><g style="opacity:0.30000000000000004"><polygon points="320.48 441.85 306.87 449.13 306.13 447.99 318.15 441.88 320.48 441.85" style="fill:#fff"></polygon></g><g style="opacity:0.30000000000000004"><polygon points="321.72 442.13 307.62 450.13 312.5 450.17 322.98 443.91 321.72 442.13" style="fill:#fff"></polygon></g><g style="opacity:0.30000000000000004"><polygon points="280.94 450.22 294.9 441.85 289.85 441.9 279.25 447.56 280.94 450.22" style="fill:#fff"></polygon></g><g style="opacity:0.30000000000000004"><polygon points="341.47 430.44 342.68 431.93 327.06 438.97 318.51 438.97 317.61 437.75 336.59 430.44 341.47 430.44" style="fill:#fff"></polygon></g><path d="M259.17,431.11h0a.86.86,0,0,1-.84-.73,4.61,4.61,0,0,0-9.1,0,.86.86,0,0,1-.84.73h0a.85.85,0,0,1-.85-1,6.31,6.31,0,0,1,12.48,0A.85.85,0,0,1,259.17,431.11Z" style="fill:#e0e0e0"></path><path d="M259.17,431.11s.13,0,.33-.13a.79.79,0,0,0,.42-.79,6.38,6.38,0,0,0-1.72-3.32A6.11,6.11,0,0,0,248.09,429a6.46,6.46,0,0,0-.24.86.76.76,0,0,0,0,.69.6.6,0,0,0,1-.08c.08-.15.11-.56.21-.82a5.14,5.14,0,0,1,.35-.84,4.86,4.86,0,0,1,4-2.56,4.74,4.74,0,0,1,4.9,3.86.92.92,0,0,0,.45.83c.2.11.33.1.33.13a.52.52,0,0,1-.38,0,.85.85,0,0,1-.38-.28,1.66,1.66,0,0,1-.22-.6,4.62,4.62,0,0,0-2.2-2.92,4.54,4.54,0,0,0-2.47-.55,4.34,4.34,0,0,0-2.64,1.13,4.38,4.38,0,0,0-1,1.24,4.21,4.21,0,0,0-.31.75c-.1.28-.07.48-.22.88a1.11,1.11,0,0,1-.91.64,1.13,1.13,0,0,1-1-.48,1.1,1.1,0,0,1-.19-.56,2.42,2.42,0,0,1,.07-.52,7.7,7.7,0,0,1,.26-.94,6.57,6.57,0,0,1,5.49-4.27,6.49,6.49,0,0,1,5.38,2,6.22,6.22,0,0,1,1.65,3.54.91.91,0,0,1-.57.92C259.3,431.16,259.17,431.12,259.17,431.11Z" style="fill:#263238"></path><path d="M263,435.8h0a.86.86,0,0,1-.84-.72,4.61,4.61,0,0,0-9.1,0,.86.86,0,0,1-.84.72h0a.85.85,0,0,1-.85-1,6.32,6.32,0,0,1,12.48,0A.85.85,0,0,1,263,435.8Z" style="fill:#e0e0e0"></path><path d="M263,435.8s.13,0,.34-.12a.79.79,0,0,0,.41-.8,6.37,6.37,0,0,0-1.71-3.31,6.22,6.22,0,0,0-5.07-1.81,6.15,6.15,0,0,0-5.05,4,6.46,6.46,0,0,0-.24.86c-.08.32-.09.49,0,.68a.6.6,0,0,0,1-.08c.07-.14.1-.55.2-.81a4.8,4.8,0,0,1,.35-.84,4.81,4.81,0,0,1,4-2.56,4.72,4.72,0,0,1,4.89,3.85,1,1,0,0,0,.45.84c.2.1.33.1.33.12s-.13.06-.38,0a.81.81,0,0,1-.38-.29,1.54,1.54,0,0,1-.22-.59,4.6,4.6,0,0,0-2.2-2.92,4.42,4.42,0,0,0-5.11.57,4.68,4.68,0,0,0-1,1.24,4,4,0,0,0-.3.75c-.11.29-.08.48-.23.89a1.11,1.11,0,0,1-1.92.16,1.06,1.06,0,0,1-.2-.57,2.42,2.42,0,0,1,.07-.52,8.08,8.08,0,0,1,.26-.93,6.51,6.51,0,0,1,10.87-2.25,6.37,6.37,0,0,1,1.66,3.55.9.9,0,0,1-.58.91C263.1,435.86,263,435.81,263,435.8Z" style="fill:#263238"></path><path d="M266.12,440.64h0a.84.84,0,0,1-.83-.72,4.61,4.61,0,0,0-9.11,0,.84.84,0,0,1-.84.72h0a.86.86,0,0,1-.85-1,6.32,6.32,0,0,1,12.48,0A.85.85,0,0,1,266.12,440.64Z" style="fill:#e0e0e0"></path><path d="M266.12,440.64s.14,0,.34-.12a.79.79,0,0,0,.42-.8,6.32,6.32,0,0,0-1.72-3.31,6.19,6.19,0,0,0-5.06-1.81,6.12,6.12,0,0,0-5.05,4,5,5,0,0,0-.24.86c-.08.32-.1.49,0,.68a.59.59,0,0,0,1-.08c.07-.15.1-.55.21-.81a3.89,3.89,0,0,1,.34-.84,5,5,0,0,1,1.08-1.37,4.82,4.82,0,0,1,5.62-.53,4.67,4.67,0,0,1,2.21,3.19.94.94,0,0,0,.45.83c.2.11.34.11.33.13s-.13.06-.37,0a1,1,0,0,1-.38-.29,1.45,1.45,0,0,1-.23-.6,4.54,4.54,0,0,0-2.2-2.91,4.41,4.41,0,0,0-6.07,1.81,4,4,0,0,0-.3.75c-.11.29-.08.48-.23.88a1.12,1.12,0,0,1-.9.65,1.16,1.16,0,0,1-1-.48,1.05,1.05,0,0,1-.19-.57,1.92,1.92,0,0,1,.07-.52,5.39,5.39,0,0,1,.26-.93,6.51,6.51,0,0,1,10.87-2.25,6.31,6.31,0,0,1,1.65,3.55.9.9,0,0,1-.58.91C266.26,440.7,266.12,440.65,266.12,440.64Z" style="fill:#263238"></path><path d="M269.22,445.81h0a.86.86,0,0,1-.84-.72,4.61,4.61,0,0,0-9.1,0,.86.86,0,0,1-.84.72h0a.85.85,0,0,1-.85-1,6.32,6.32,0,0,1,12.48,0A.85.85,0,0,1,269.22,445.81Z" style="fill:#e0e0e0"></path><path d="M269.22,445.81a2.25,2.25,0,0,0,.34-.12.79.79,0,0,0,.41-.8,6.41,6.41,0,0,0-1.71-3.31,6.12,6.12,0,0,0-10.12,2.17,6.46,6.46,0,0,0-.24.86c-.08.32-.09.49,0,.68a.6.6,0,0,0,1-.08c.07-.14.1-.55.2-.81a4.8,4.8,0,0,1,.35-.84,4.81,4.81,0,0,1,4-2.56,4.72,4.72,0,0,1,4.89,3.85.94.94,0,0,0,.45.84,2,2,0,0,0,.33.12s-.13.06-.38,0a.81.81,0,0,1-.38-.29,1.54,1.54,0,0,1-.22-.59A4.6,4.6,0,0,0,266,442a4.42,4.42,0,0,0-5.11.57,4.68,4.68,0,0,0-1,1.24,3.88,3.88,0,0,0-.3.76c-.11.28-.08.47-.23.88a1.11,1.11,0,0,1-.91.64,1.12,1.12,0,0,1-1-.48,1.06,1.06,0,0,1-.2-.56,2.44,2.44,0,0,1,.07-.53,8.08,8.08,0,0,1,.26-.93,6.51,6.51,0,0,1,10.87-2.25,6.37,6.37,0,0,1,1.66,3.55.9.9,0,0,1-.58.91C269.35,445.87,269.22,445.83,269.22,445.81Z" style="fill:#263238"></path><path d="M273.14,452.13h0a.84.84,0,0,1-.84-.73,4.61,4.61,0,0,0-9.11,0,.84.84,0,0,1-.83.73h0a.85.85,0,0,1-.85-1,6.31,6.31,0,0,1,12.48,0A.86.86,0,0,1,273.14,452.13Z" style="fill:#e0e0e0"></path><path d="M273.14,452.13s.13,0,.33-.13a.78.78,0,0,0,.42-.79,6.38,6.38,0,0,0-1.72-3.32,6.11,6.11,0,0,0-10.11,2.17,5.53,5.53,0,0,0-.24.86c-.08.33-.09.5,0,.69a.6.6,0,0,0,1-.08c.07-.15.1-.56.21-.82a4.05,4.05,0,0,1,.35-.83,5,5,0,0,1,1.07-1.37,4.82,4.82,0,0,1,5.62-.53,4.65,4.65,0,0,1,2.21,3.19.94.94,0,0,0,.45.83,2.79,2.79,0,0,0,.34.13s-.14.06-.38,0a1,1,0,0,1-.38-.29,1.31,1.31,0,0,1-.22-.6A4.57,4.57,0,0,0,270,448.3a4.31,4.31,0,0,0-2.46-.55,4.38,4.38,0,0,0-2.65,1.12,4.18,4.18,0,0,0-.95,1.24,4.09,4.09,0,0,0-.31.75c-.11.28-.08.48-.23.88a1.09,1.09,0,0,1-.9.64,1.13,1.13,0,0,1-1-.48,1.1,1.1,0,0,1-.19-.56,1.92,1.92,0,0,1,.07-.52,4.93,4.93,0,0,1,.26-.93,6.58,6.58,0,0,1,5.49-4.28,6.49,6.49,0,0,1,5.38,2,6.31,6.31,0,0,1,1.65,3.55.91.91,0,0,1-.57.91C273.27,452.19,273.13,452.14,273.14,452.13Z" style="fill:#263238"></path><path d="M161.84,465.39a17.52,17.52,0,0,1-.44-4.19,17.11,17.11,0,0,1,.07-4.21,17.72,17.72,0,0,1,.45,4.19A17.39,17.39,0,0,1,161.84,465.39Z" style="fill:#263238"></path><path d="M271.14,460.25l-.28,0-.83,0-3.18.09-11.72.21c-9.89.15-23.55.25-38.64.3l-38.64.15-11.71.05h-4l-.28,0,.28,0,.83,0,3.18-.09,11.71-.22c9.89-.14,23.56-.24,38.65-.3l38.64-.14,11.71-.05H270l.83,0A.9.9,0,0,1,271.14,460.25Z" style="fill:#263238"></path><path d="M358.46,459.41c0,.14-19.43.26-43.41.26s-43.42-.12-43.42-.26,19.44-.26,43.42-.26S358.46,459.27,358.46,459.41Z" style="fill:#263238"></path><path d="M378.3,460.93c0,.15-13.78.26-30.77.26s-30.76-.11-30.76-.26,13.77-.26,30.76-.26S378.3,460.79,378.3,460.93Z" style="fill:#263238"></path></g></svg>